<svg height="60" viewBox="0 0 60 60" width="60" xmlns="http://www.w3.org/2000/svg"><path d="m23.027 26.935-.791-21.718 11.076 17.234 16.982-3.648-14.62 11.427.591 19.861-9.747-17.111-11.962-1.18z" fill="#d88c1f"/><path d="M36.065 57.923a42.549 42.549 0 0 0-.962-4.28A21.243 21.243 0 0 0 33.39 49.9c-.9-1.592-1.678-3.235-2.5-4.863-1.59-3.164-3.461-6.19-5.263-9.241a2.771 2.771 0 0 0-2.734-1.49c-3.549.177-7.1.215-10.657.338-.641.022-1.275.2-1.915.277a1.206 1.206 0 0 1-1.29-.611c-.434-.732-.877-1.458-1.359-2.259a2.1 2.1 0 0 1 1.686-.551 3.059 3.059 0 0 0 1.483-.133c2.442-.969 4.86-2 7.287-3.007.042-.018.088-.029.129-.05 2.761-1.409 2.394-.626 2.328-3.8-.088-4.226-.318-8.451-.588-12.67-.117-1.84-.487-3.65-.735-5.471a5.88 5.88 0 0 1 .362-2.944l3.307-1.552c.85 1.413 1.744 2.8 2.541 4.242 1.451 2.622 2.854 5.27 4.259 7.916.843 1.586 1.651 3.191 2.48 4.785.277.532.544 1.072.862 1.579.668 1.062.8 1.162 2.04.769 1.534-.485 3.009-1.158 4.541-1.652 2.28-.734 4.588-1.382 6.883-2.071a2.723 2.723 0 0 0 .776-.283 2.563 2.563 0 0 1 2.607-.339 4.774 4.774 0 0 0 1.093.139c1.061.158 1.448.656 1.275 1.718A3.083 3.083 0 0 1 51 20.719c-2.023 1.509-3.995 3.085-6.022 4.587a17.565 17.565 0 0 1-3.761 2.3 10.7 10.7 0 0 0-3.976 3.131 1.93 1.93 0 0 0-.386 1.252c.055.963.247 1.919.383 2.878.264 1.871.51 3.745.8 5.613a89.225 89.225 0 0 1 .578 10.085c.081 2.064.5 4.113.722 6.174a12.483 12.483 0 0 1-.083 1.848zm-1.642-13.476.271-.085a3.2 3.2 0 0 0 .069-.76 99.873 99.873 0 0 0-.6-3.685 35.576 35.576 0 0 1-.7-3.527c-.157-2.052-.137-4.117-.2-6.176a2.817 2.817 0 0 1 1.758-2.714 10.968 10.968 0 0 0 2.038-.813c1.409-.935 2.743-1.984 4.105-2.989.372-.274.738-.555 1.083-.816l-.774-1.224c-1.507.587-3.026 1.122-4.5 1.767-1.862.814-3.629.984-5.338-.354a3.583 3.583 0 0 1-1.33-1.545c-.192-.511-.555-.954-.8-1.448-.783-1.561-1.752-3.016-2.6-4.531a57.316 57.316 0 0 0-3.453-5.666 3.067 3.067 0 0 0-.516-.457 20.583 20.583 0 0 0 .28 3.619c.259 2.014.548 4.026.727 6.048.191 2.158.273 4.325.4 6.489q.068 1.176.105 2.353a1.435 1.435 0 0 1-.983 1.514c-.683.25-1.4.469-2.109.658a3.92 3.92 0 0 0-2.051 1.3h1.8c1.063 0 2.127-.025 3.189.006 3.3.1 3.843.457 5.272 3.434.619 1.289 1.185 2.6 1.825 3.88.738 1.471 1.531 2.915 2.3 4.37.235.45.486.905.732 1.352zm7.994-21.995a3.065 3.065 0 0 0 .294-.714c0-.064-.18-.136-.278-.2a1.218 1.218 0 0 0-.237.374c-.02.098.086.226.221.54z"/></svg>